<svg xmlns="http://www.w3.org/2000/svg" aria-hidden="true" style="position:absolute;width:0;height:0;overflow:hidden"><defs><symbol id="icon-icon-open" viewBox="0 0 61 34"><path d="M1.789 0h56.42c.988 0 1.789.801 1.789 1.789V4.21c0 .988-.801 1.789-1.789 1.789H1.789A1.789 1.789 0 0 1 0 4.21V1.789C0 .801.801 0 1.789 0zM1.789 14.001h56.42c.988 0 1.789.801 1.789 1.789v2.421c0 .988-.801 1.789-1.789 1.789H1.789A1.789 1.789 0 0 1 0 18.211V15.79c0-.988.801-1.789 1.789-1.789zM1.789 28h38.86c.988 0 1.789.801 1.789 1.789v2.421c0 .988-.801 1.789-1.789 1.789H1.789A1.789 1.789 0 0 1 0 32.21v-2.421C0 28.801.801 28 1.789 28z"/></symbol><symbol id="icon-lamp" viewBox="0 0 34 34"><path d="M19.739 21.751a6.598 6.598 0 0 0 3.533-2.287l.01-.014a6.548 6.548 0 0 0 1.385-4.963l.003.033a6.594 6.594 0 0 0-2.521-4.44l-.015-.011c-1.374-1.059-3.087-1.53-4.823-1.326s-3.293 1.06-4.384 2.409a6.532 6.532 0 0 0-1.475 4.028v.006c-.048 2.407-.878 4.745-2.336 6.582l-1.595 2.01a2.063 2.063 0 0 0 .33 2.897l.004.003 1.504 1.194a2.063 2.063 0 0 0 2.897-.329l.003-.004 1.595-2.01c1.474-1.857 3.505-3.167 5.886-3.777zm-7.437-6.547a5.707 5.707 0 0 1 1.294-3.527l-.008.01c1.959-2.423 5.56-2.846 8.027-.944a5.751 5.751 0 0 1 2.208 3.853l.003.028a5.717 5.717 0 0 1-1.219 4.31l.009-.011a5.742 5.742 0 0 1-3.049 1.996l-.04.009c-2.508.643-4.665 2.005-6.247 3.942l-3.4-2.699c1.512-1.962 2.371-4.429 2.422-6.967zm-3.935 8.877.214-.27 3.095 3.092-.084.106a1.215 1.215 0 0 1-.144.151l-3.081-3.079zm.745-.941.241-.302 3.405 2.702-.55.693-3.096-3.092zm-.729 2.871a1.213 1.213 0 0 1-.44-1.159l-.001.007 2.607 2.605a1.205 1.205 0 0 1-.665-.261l.002.002-1.504-1.194z"/><path d="M14.394 13.211c.113-.195.242-.384.386-.561a.425.425 0 1 0-.66-.536l-.001.001a5.227 5.227 0 0 0-.462.671.425.425 0 0 0 .736.426l.001-.002zm-2.057 6.617a.425.425 0 0 0 .663-.183l.001-.003c.498-1.307.8-2.817.832-4.393v-.014c.005-.249.032-.498.079-.739a.425.425 0 0 0-.834-.166v.003a5.132 5.132 0 0 0-.095.886 12.617 12.617 0 0 1-.809 4.217l.029-.087a.423.423 0 0 0 .134.479l.001.001zm8.344-.584a.426.426 0 0 0-.578-.172l.002-.001a4.127 4.127 0 0 1-.928.366l-.03.007a.426.426 0 0 0 .098.839c.04 0 .079-.006.116-.016l-.003.001a5.15 5.15 0 0 0 1.149-.447.425.425 0 0 0 .172-.578l.001.002zm.049-7.25a4.257 4.257 0 0 1 .423 6.278l.002-.002a.424.424 0 0 0 .307.719c.121 0 .23-.05.307-.131a5.109 5.109 0 0 0-.51-7.53.425.425 0 0 0-.529.665l.001.001zm1.937-2.44a.425.425 0 0 0 .596-.068l.001-.001 1.481-1.865a.425.425 0 0 0-.665-.529l-.001.001-1.481 1.865a.425.425 0 0 0 .068.596l.001.001zm-3.893-2.017a.425.425 0 0 0 .84.126v-.002l.35-2.355a.426.426 0 0 0-.842-.128v.002l-.35 2.355zm3.428 17.223-.875-2.215a.426.426 0 1 0-.79.315l-.001-.003.875 2.215a.426.426 0 1 0 .79-.315l.001.003zM13.877 6.006l.875 2.215a.424.424 0 0 0 .555.238l-.003.001a.426.426 0 0 0 .238-.554l.001.003-.875-2.215a.426.426 0 1 0-.79.315l-.001-.003zm12.455 15.417-1.865-1.481a.425.425 0 0 0-.529.665l.001.001 1.865 1.481a.425.425 0 0 0 .529-.665l-.001-.001zM12.21 10.756a.423.423 0 0 0-.068-.597l-.001-.001-1.866-1.481a.425.425 0 0 0-.529.665l.001.001 1.865 1.481a.425.425 0 0 0 .597-.068l.001-.001zm13.349 6.116a.42.42 0 0 0 .202.087l2.355.35a.426.426 0 0 0 .128-.842h-.002l-2.355-.35a.425.425 0 0 0-.328.754l.001.001zm-15.241-3.064-2.355-.35a.426.426 0 0 0-.128.842h.002l2.356.35a.425.425 0 0 0 .126-.84h-.002zm14.644-1.16a.426.426 0 0 0 .555.238l-.003.001 2.215-.875a.426.426 0 1 0-.315-.79l.003-.001-2.215.875a.426.426 0 0 0-.238.554l-.001-.003z"/></symbol></defs></svg>