<svg xmlns="http://www.w3.org/2000/svg" aria-hidden="true" style="position:absolute;width:0;height:0;overflow:hidden"><defs><symbol id="icon-open" viewBox="0 0 57 32"><path d="M1.684 0h53.101c.93 0 1.684.754 1.684 1.684v2.279c0 .93-.754 1.684-1.684 1.684H1.684C.754 5.647 0 4.893 0 3.963V1.684C0 .754.754 0 1.684 0zM1.684 13.177h53.101c.93 0 1.684.754 1.684 1.684v2.279c0 .93-.754 1.684-1.684 1.684H1.684C.754 18.824 0 18.07 0 17.14v-2.279c0-.93.754-1.684 1.684-1.684zM1.684 26.353h36.574c.93 0 1.684.754 1.684 1.684v2.279c0 .93-.754 1.684-1.684 1.684H1.684C.754 32 0 31.246 0 30.316v-2.279c0-.93.754-1.684 1.684-1.684z"/></symbol><symbol id="icon-lamp" viewBox="0 0 32 32"><path d="M18.613 19.931a5.778 5.778 0 0 0 3.093-2.002l.009-.012a5.734 5.734 0 0 0 1.213-4.345l.003.029a5.773 5.773 0 0 0-2.207-3.887l-.013-.01c-1.203-.927-2.703-1.34-4.222-1.16s-2.883.928-3.838 2.109a5.712 5.712 0 0 0-1.291 3.526v.005c-.042 2.107-.768 4.154-2.045 5.762l-1.396 1.76a1.806 1.806 0 0 0 .288 2.536l.004.003 1.317 1.045a1.806 1.806 0 0 0 2.536-.288l.003-.004 1.396-1.759c1.29-1.626 3.068-2.772 5.152-3.307zm-6.51-5.732a4.993 4.993 0 0 1 1.133-3.087l-.007.009c1.715-2.121 4.867-2.492 7.027-.827a5.036 5.036 0 0 1 1.934 3.373l.002.024a5.002 5.002 0 0 1-1.068 3.772l.008-.01a5.026 5.026 0 0 1-2.669 1.748l-.035.008c-2.196.563-4.084 1.755-5.469 3.451l-2.976-2.363c1.324-1.718 2.075-3.877 2.12-6.099zM8.657 21.97l.187-.236 2.71 2.708-.073.093a1.044 1.044 0 0 1-.126.131l-2.698-2.695zm.653-.823.21-.265 2.98 2.366-.481.606-2.71-2.707zm-.638 2.513a1.063 1.063 0 0 1-.385-1.016l-.001.006 2.282 2.28a1.063 1.063 0 0 1-.582-.228l.002.002-1.317-1.045z"/><path d="M13.934 12.455c.098-.171.212-.336.338-.492a.372.372 0 0 0-.579-.468l-.001.001c-.15.186-.286.384-.404.588a.372.372 0 0 0 .644.373l.001-.002zm-1.801 5.792a.373.373 0 0 0 .581-.16l.001-.003c.436-1.144.7-2.466.728-3.846v-.012c.005-.232.03-.455.073-.672l-.004.024a.372.372 0 0 0-.731-.145v.002a4.42 4.42 0 0 0-.083.771v.005a11.076 11.076 0 0 1-.708 3.692l.025-.076a.372.372 0 0 0 .117.42l.001.001zm7.305-.511a.372.372 0 0 0-.506-.151l.002-.001a3.58 3.58 0 0 1-.812.32l-.026.006a.372.372 0 0 0 .188.721l-.003.001c.352-.09.69-.222 1.006-.392a.372.372 0 0 0 .151-.506l.001.002zm.042-6.347a3.727 3.727 0 0 1 .371 5.495.372.372 0 0 0 .538.514 4.472 4.472 0 0 0-.448-6.592.372.372 0 1 0-.463.582l.001.001zm1.696-2.136a.373.373 0 0 0 .523-.059l.001-.001 1.296-1.634a.372.372 0 0 0-.582-.462v.001l-1.296 1.633a.373.373 0 0 0 .059.523l.001.001zm-3.408-1.766a.372.372 0 0 0 .736.111v-.002l.306-2.062a.372.372 0 1 0-.736-.11v.002l-.306 2.062zm3.001 15.078-.766-1.939a.372.372 0 1 0-.691.275l-.001-.003.766 1.939a.373.373 0 1 0 .691-.276l.001.003zM13.481 6.147l.766 1.938a.372.372 0 1 0 .691-.275l.001.003-.766-1.939a.372.372 0 1 0-.691.275l-.001-.003zm10.904 13.496-1.633-1.297a.372.372 0 0 0-.464.582h.001l1.633 1.297a.372.372 0 0 0 .464-.582h-.001zm-12.363-9.338a.373.373 0 0 0-.059-.523l-.001-.001-1.633-1.296a.372.372 0 0 0-.462.582h.001l1.633 1.296a.373.373 0 0 0 .522-.059l.001-.001zm11.687 5.354a.37.37 0 0 0 .175.076h.002l2.062.306a.372.372 0 1 0 .11-.736h-.002l-2.061-.306a.372.372 0 0 0-.286.659l.001.001zm-13.344-2.683-2.062-.306a.372.372 0 1 0-.11.736h.002l2.062.306a.372.372 0 0 0 .111-.736h-.002zm12.821-1.015a.374.374 0 0 0 .486.209l-.003.001 1.939-.766a.372.372 0 1 0-.276-.691l.002-.001-1.939.766a.373.373 0 0 0-.208.485l-.001-.002z"/></symbol></defs></svg>