<svg aria-hidden="true" style="position: absolute; width: 0; height: 0; overflow: hidden;" version="1.1" xmlns="http://www.w3.org/2000/svg" xmlns:xlink="http://www.w3.org/1999/xlink">
<defs>
<symbol id="icon-icon-open" viewBox="0 0 61 34">
<path fill="#39515e" style="fill: var(--color1, #39515e)" d="M1.789 0h56.421c0.988 0 1.789 0.801 1.789 1.789v2.421c0 0.988-0.801 1.789-1.789 1.789h-56.421c-0.988 0-1.789-0.801-1.789-1.789v-2.421c0-0.988 0.801-1.789 1.789-1.789z"></path>
<path fill="#39515e" style="fill: var(--color1, #39515e)" d="M1.789 14h56.421c0.988 0 1.789 0.801 1.789 1.789v2.421c0 0.988-0.801 1.789-1.789 1.789h-56.421c-0.988 0-1.789-0.801-1.789-1.789v-2.421c0-0.988 0.801-1.789 1.789-1.789z"></path>
<path fill="#39515e" style="fill: var(--color1, #39515e)" d="M1.789 28h38.86c0.988 0 1.789 0.801 1.789 1.789v2.421c0 0.988-0.801 1.789-1.789 1.789h-38.86c-0.988 0-1.789-0.801-1.789-1.789v-2.421c0-0.988 0.801-1.789 1.789-1.789z"></path>
</symbol>
</defs>
</svg>
