<svg aria-hidden="true" style="position: absolute; width: 0; height: 0; overflow: hidden;" version="1.1" xmlns="http://www.w3.org/2000/svg" xmlns:xlink="http://www.w3.org/1999/xlink">
<defs>
<symbol id="icon-bulb-icon" viewBox="0 0 48 48">
<path d="M28.037 30.022c1.86-0.477 3.476-1.526 4.673-3.034 1.468-1.849 2.118-4.158 1.832-6.501s-1.475-4.429-3.345-5.87c-1.812-1.397-4.071-2.018-6.361-1.749s-4.343 1.398-5.782 3.177c-1.233 1.525-1.906 3.365-1.946 5.321-0.064 3.174-1.158 6.257-3.080 8.679l-2.104 2.65c-0.933 1.176-0.736 2.891 0.44 3.824l1.983 1.574c1.176 0.933 2.891 0.736 3.824-0.44l2.104-2.65c1.944-2.449 4.622-4.176 7.762-4.981zM18.231 21.388c0.034-1.704 0.621-3.308 1.696-4.638 2.583-3.195 7.332-3.753 10.585-1.245 1.631 1.259 2.667 3.075 2.916 5.117s-0.318 4.056-1.597 5.668c-1.043 1.315-2.452 2.229-4.073 2.645-3.308 0.848-6.152 2.644-8.238 5.199l-4.483-3.559c1.994-2.587 3.126-5.841 3.193-9.188zM13.040 33.094l0.282-0.356 4.081 4.078-0.11 0.139c-0.058 0.073-0.122 0.139-0.19 0.199l-4.064-4.060zM14.025 31.854l0.317-0.399 4.49 3.564-0.725 0.913-4.081-4.078zM13.062 35.64c-0.472-0.375-0.675-0.964-0.582-1.52l3.438 3.435c-0.308-0.023-0.613-0.135-0.873-0.342l-1.983-1.574z"></path>
<path d="M20.989 18.761c0.148-0.257 0.319-0.506 0.509-0.74 0.195-0.241 0.157-0.594-0.083-0.789-0.239-0.193-0.594-0.157-0.789 0.083-0.226 0.28-0.431 0.578-0.608 0.886-0.141 0.244-0.077 0.549 0.137 0.719 0.022 0.017 0.045 0.033 0.069 0.047 0.268 0.155 0.611 0.062 0.766-0.206z"></path>
<path d="M18.277 27.486c0.045 0.036 0.097 0.066 0.155 0.087 0.291 0.107 0.613-0.042 0.72-0.332 0.688-1.867 1.058-3.823 1.098-5.812 0.007-0.329 0.042-0.657 0.104-0.975 0.060-0.304-0.138-0.599-0.442-0.658s-0.599 0.138-0.658 0.442c-0.075 0.382-0.117 0.775-0.125 1.169-0.037 1.864-0.384 3.697-1.029 5.446-0.086 0.233-0.007 0.487 0.177 0.633z"></path>
<path d="M29.279 26.717c-0.147-0.273-0.487-0.375-0.76-0.229-0.396 0.213-0.821 0.378-1.263 0.491-0.3 0.077-0.481 0.383-0.404 0.683 0.032 0.123 0.102 0.226 0.194 0.3 0.133 0.105 0.312 0.15 0.488 0.104 0.53-0.136 1.040-0.334 1.515-0.59 0.273-0.147 0.375-0.487 0.229-0.76z"></path>
<path d="M29.344 17.155c2.422 1.923 2.829 5.458 0.906 7.88-0.109 0.138-0.226 0.271-0.346 0.398-0.214 0.224-0.206 0.579 0.018 0.793 0.013 0.012 0.026 0.023 0.039 0.034 0.225 0.178 0.552 0.159 0.754-0.052 0.144-0.151 0.283-0.31 0.414-0.475 2.307-2.907 1.82-7.149-1.087-9.456-0.243-0.193-0.595-0.152-0.788 0.091s-0.152 0.595 0.091 0.788z"></path>
<path d="M31.899 13.937c0.243 0.193 0.595 0.152 0.788-0.091l1.953-2.46c0.193-0.243 0.152-0.595-0.091-0.788s-0.595-0.152-0.788 0.091l-1.953 2.46c-0.193 0.243-0.152 0.595 0.091 0.788z"></path>
<path d="M26.765 11.277c-0.030 0.206 0.055 0.402 0.206 0.522 0.075 0.059 0.165 0.1 0.266 0.115 0.306 0.045 0.592-0.166 0.637-0.472l0.461-3.106c0.045-0.307-0.166-0.592-0.472-0.637s-0.592 0.166-0.637 0.472l-0.461 3.106z"></path>
<path d="M31.285 33.99l-1.154-2.92c-0.114-0.288-0.44-0.429-0.728-0.315s-0.429 0.44-0.316 0.728l1.154 2.92c0.037 0.095 0.098 0.174 0.172 0.233 0.152 0.121 0.362 0.159 0.555 0.083 0.288-0.114 0.429-0.44 0.316-0.728z"></path>
<path d="M20.308 9.259l1.154 2.92c0.037 0.095 0.098 0.174 0.172 0.233 0.152 0.121 0.362 0.159 0.555 0.082 0.288-0.114 0.429-0.44 0.315-0.728l-1.154-2.92c-0.114-0.288-0.44-0.429-0.728-0.316s-0.429 0.44-0.315 0.728z"></path>
<path d="M36.732 29.589l-2.46-1.953c-0.243-0.193-0.595-0.152-0.788 0.091s-0.152 0.595 0.091 0.788l2.46 1.953c0.243 0.193 0.596 0.152 0.788-0.091s0.152-0.595-0.091-0.788z"></path>
<path d="M18.109 15.523c0.193-0.243 0.152-0.595-0.091-0.788l-2.46-1.953c-0.243-0.193-0.596-0.152-0.788 0.091s-0.152 0.595 0.091 0.788l2.46 1.953c0.243 0.193 0.596 0.152 0.788-0.091z"></path>
<path d="M35.713 23.588c0.075 0.059 0.165 0.1 0.266 0.115l3.106 0.461c0.306 0.045 0.592-0.166 0.637-0.472s-0.166-0.592-0.472-0.637l-3.106-0.461c-0.306-0.045-0.592 0.166-0.637 0.472-0.031 0.206 0.055 0.402 0.206 0.522z"></path>
<path d="M15.614 19.547l-3.106-0.461c-0.306-0.045-0.592 0.166-0.637 0.472-0.030 0.206 0.055 0.402 0.206 0.522 0.074 0.059 0.165 0.1 0.266 0.115l3.106 0.461c0.306 0.045 0.592-0.166 0.637-0.472s-0.166-0.592-0.472-0.637z"></path>
<path d="M34.926 18.018c0.037 0.095 0.098 0.174 0.172 0.233 0.152 0.121 0.362 0.159 0.555 0.083l2.92-1.154c0.288-0.114 0.429-0.44 0.316-0.728s-0.44-0.429-0.728-0.316l-2.92 1.154c-0.288 0.114-0.429 0.44-0.315 0.728z"></path>
</symbol><symbol id="icon-icon-open" viewBox="0 0 61 34"><path d="M1.789 0h56.42c.988 0 1.789.801 1.789 1.789V4.21c0 .988-.801 1.789-1.789 1.789H1.789A1.789 1.789 0 0 1 0 4.21V1.789C0 .801.801 0 1.789 0zM1.789 14.001h56.42c.988 0 1.789.801 1.789 1.789v2.421c0 .988-.801 1.789-1.789 1.789H1.789A1.789 1.789 0 0 1 0 18.211V15.79c0-.988.801-1.789 1.789-1.789zM1.789 28h38.86c.988 0 1.789.801 1.789 1.789v2.421c0 .988-.801 1.789-1.789 1.789H1.789A1.789 1.789 0 0 1 0 32.21v-2.421C0 28.801.801 28 1.789 28z"/></symbol><symbol id="icon-lamp" viewBox="0 0 34 34"><path d="M19.739 21.751a6.598 6.598 0 0 0 3.533-2.287l.01-.014a6.548 6.548 0 0 0 1.385-4.963l.003.033a6.594 6.594 0 0 0-2.521-4.44l-.015-.011c-1.374-1.059-3.087-1.53-4.823-1.326s-3.293 1.06-4.384 2.409a6.532 6.532 0 0 0-1.475 4.028v.006c-.048 2.407-.878 4.745-2.336 6.582l-1.595 2.01a2.063 2.063 0 0 0 .33 2.897l.004.003 1.504 1.194a2.063 2.063 0 0 0 2.897-.329l.003-.004 1.595-2.01c1.474-1.857 3.505-3.167 5.886-3.777zm-7.437-6.547a5.707 5.707 0 0 1 1.294-3.527l-.008.01c1.959-2.423 5.56-2.846 8.027-.944a5.751 5.751 0 0 1 2.208 3.853l.003.028a5.717 5.717 0 0 1-1.219 4.31l.009-.011a5.742 5.742 0 0 1-3.049 1.996l-.04.009c-2.508.643-4.665 2.005-6.247 3.942l-3.4-2.699c1.512-1.962 2.371-4.429 2.422-6.967zm-3.935 8.877.214-.27 3.095 3.092-.084.106a1.215 1.215 0 0 1-.144.151l-3.081-3.079zm.745-.941.241-.302 3.405 2.702-.55.693-3.096-3.092zm-.729 2.871a1.213 1.213 0 0 1-.44-1.159l-.001.007 2.607 2.605a1.205 1.205 0 0 1-.665-.261l.002.002-1.504-1.194z"/><path d="M14.394 13.211c.113-.195.242-.384.386-.561a.425.425 0 1 0-.66-.536l-.001.001a5.227 5.227 0 0 0-.462.671.425.425 0 0 0 .736.426l.001-.002zm-2.057 6.617a.425.425 0 0 0 .663-.183l.001-.003c.498-1.307.8-2.817.832-4.393v-.014c.005-.249.032-.498.079-.739a.425.425 0 0 0-.834-.166v.003a5.132 5.132 0 0 0-.095.886 12.617 12.617 0 0 1-.809 4.217l.029-.087a.423.423 0 0 0 .134.479l.001.001zm8.344-.584a.426.426 0 0 0-.578-.172l.002-.001a4.127 4.127 0 0 1-.928.366l-.03.007a.426.426 0 0 0 .098.839c.04 0 .079-.006.116-.016l-.003.001a5.15 5.15 0 0 0 1.149-.447.425.425 0 0 0 .172-.578l.001.002zm.049-7.25a4.257 4.257 0 0 1 .423 6.278l.002-.002a.424.424 0 0 0 .307.719c.121 0 .23-.05.307-.131a5.109 5.109 0 0 0-.51-7.53.425.425 0 0 0-.529.665l.001.001zm1.937-2.44a.425.425 0 0 0 .596-.068l.001-.001 1.481-1.865a.425.425 0 0 0-.665-.529l-.001.001-1.481 1.865a.425.425 0 0 0 .068.596l.001.001zm-3.893-2.017a.425.425 0 0 0 .84.126v-.002l.35-2.355a.426.426 0 0 0-.842-.128v.002l-.35 2.355zm3.428 17.223-.875-2.215a.426.426 0 1 0-.79.315l-.001-.003.875 2.215a.426.426 0 1 0 .79-.315l.001.003zM13.877 6.006l.875 2.215a.424.424 0 0 0 .555.238l-.003.001a.426.426 0 0 0 .238-.554l.001.003-.875-2.215a.426.426 0 1 0-.79.315l-.001-.003zm12.455 15.417-1.865-1.481a.425.425 0 0 0-.529.665l.001.001 1.865 1.481a.425.425 0 0 0 .529-.665l-.001-.001zM12.21 10.756a.423.423 0 0 0-.068-.597l-.001-.001-1.866-1.481a.425.425 0 0 0-.529.665l.001.001 1.865 1.481a.425.425 0 0 0 .597-.068l.001-.001zm13.349 6.116a.42.42 0 0 0 .202.087l2.355.35a.426.426 0 0 0 .128-.842h-.002l-2.355-.35a.425.425 0 0 0-.328.754l.001.001zm-15.241-3.064-2.355-.35a.426.426 0 0 0-.128.842h.002l2.356.35a.425.425 0 0 0 .126-.84h-.002zm14.644-1.16a.426.426 0 0 0 .555.238l-.003.001 2.215-.875a.426.426 0 1 0-.315-.79l.003-.001-2.215.875a.426.426 0 0 0-.238.554l-.001-.003z"/></symbol>
</defs>
</svg>
